<?xml version="1.0" standalone="no"?>
<!DOCTYPE svg PUBLIC "-//W3C//DTD SVG 20010904//EN"
 "http://www.w3.org/TR/2001/REC-SVG-20010904/DTD/svg10.dtd">
<svg version="1.0" xmlns="http://www.w3.org/2000/svg"
 width="342.000000pt" height="342.000000pt" viewBox="0 0 342.000000 342.000000"
 preserveAspectRatio="xMidYMid meet">
<metadata>
Created by potrace 1.11, written by Peter Selinger 2001-2013
</metadata>
<g transform="translate(0.000000,342.000000) scale(0.100000,-0.100000)"
fill="#000000" stroke="none">
<path d="M504 2918 l-501 -500 1 -709 1 -709 498 -498 499 -499 708 0 708 0
500 501 499 501 -1 706 -1 707 -499 498 -498 499 -706 1 -707 1 -501 -499z
m2890 -508 c3 -3 -216 -227 -487 -497 l-492 -491 -160 -92 c-88 -51 -173 -100
-190 -110 -16 -9 -107 -62 -202 -118 l-172 -100 -38 20 c-21 12 -159 91 -308
178 -442 258 -585 339 -585 334 0 -2 81 -116 180 -254 99 -137 183 -255 185
-262 4 -11 -104 -13 -547 -13 -304 0 -552 4 -551 8 4 15 49 61 413 422 207
206 351 343 337 319 l-25 -41 191 -110 c395 -228 683 -396 713 -414 l31 -18
283 164 c156 91 284 165 285 165 1 0 55 32 119 70 65 39 119 70 122 70 4 0
112 66 122 75 1 1 -14 30 -35 64 -21 35 -45 74 -54 89 -9 15 -57 93 -107 173
-134 217 -211 345 -217 360 -4 12 86 14 589 14 327 0 597 -2 600 -5z"/>
</g>
</svg>
